<?xml version="1.0" encoding="UTF-8"?>
<svg width="800" height="600" viewBox="0 0 800 600" xmlns="http://www.w3.org/2000/svg">
  <defs>
    <linearGradient id="bg-gradient" x1="0%" y1="0%" x2="100%" y2="100%">
      <stop offset="0%" stop-color="#3b82f6" stop-opacity="0.1" />
      <stop offset="100%" stop-color="#ec4899" stop-opacity="0.2" />
    </linearGradient>
    <filter id="filter0_d" x="0" y="0" width="800" height="600" filterUnits="userSpaceOnUse" color-interpolation-filters="sRGB">
      <feFlood flood-opacity="0" result="BackgroundImageFix"/>
      <feColorMatrix in="SourceAlpha" type="matrix" values="0 0 0 0 0 0 0 0 0 0 0 0 0 0 0 0 0 0 127 0"/>
      <feOffset dy="4"/>
      <feGaussianBlur stdDeviation="2"/>
      <feColorMatrix type="matrix" values="0 0 0 0 0 0 0 0 0 0 0 0 0 0 0 0 0 0 0.25 0"/>
      <feBlend mode="normal" in2="BackgroundImageFix" result="effect1_dropShadow"/>
      <feBlend mode="normal" in="SourceGraphic" in2="effect1_dropShadow" result="shape"/>
    </filter>
  </defs>
  
  <!-- Background Pattern -->
  <rect width="800" height="600" fill="url(#bg-gradient)" />
  
  <!-- Dumbbell Silhouette 1 -->
  <g transform="translate(100, 150) scale(0.8)">
    <rect x="50" y="45" width="200" height="10" rx="5" fill="#333333" opacity="0.7" />
    <circle cx="40" cy="50" r="30" fill="#333333" opacity="0.7" />
    <circle cx="260" cy="50" r="30" fill="#333333" opacity="0.7" />
  </g>
  
  <!-- Dumbbell Silhouette 2 -->
  <g transform="translate(500, 370) rotate(30) scale(0.7)">
    <rect x="50" y="45" width="200" height="10" rx="5" fill="#333333" opacity="0.7" />
    <circle cx="40" cy="50" r="30" fill="#333333" opacity="0.7" />
    <circle cx="260" cy="50" r="30" fill="#333333" opacity="0.7" />
  </g>
  
  <!-- Barbell Silhouette -->
  <g transform="translate(200, 300) scale(1.2)">
    <rect x="20" y="47" width="260" height="6" rx="3" fill="#444444" opacity="0.6" />
    <rect x="30" y="30" width="10" height="40" rx="2" fill="#444444" opacity="0.6" />
    <rect x="260" y="30" width="10" height="40" rx="2" fill="#444444" opacity="0.6" />
    <circle cx="20" cy="50" r="15" fill="#444444" opacity="0.6" />
    <circle cx="280" cy="50" r="15" fill="#444444" opacity="0.6" />
  </g>
  
  <!-- Kettlebell Silhouette -->
  <g transform="translate(570, 150) scale(0.6)">
    <path d="M50,20 L70,20 C80,20 90,30 90,50 L90,80 C90,120 50,140 50,140 C50,140 10,120 10,80 L10,50 C10,30 20,20 30,20 L50,20 Z" fill="#555555" opacity="0.6" />
    <rect x="40" y="5" width="20" height="15" rx="5" fill="#555555" opacity="0.6" />
  </g>
  
  <!-- Abstract Fitness Person Silhouette -->
  <g transform="translate(350, 250) scale(0.8)">
    <circle cx="50" cy="30" r="25" fill="#666666" opacity="0.5" /> <!-- Head -->
    <rect x="40" y="55" width="20" height="60" rx="5" fill="#666666" opacity="0.5" /> <!-- Torso -->
    <rect x="20" y="60" width="15" height="50" rx="5" transform="rotate(-30 20 60)" fill="#666666" opacity="0.5" /> <!-- Left Arm -->
    <rect x="65" y="60" width="15" height="50" rx="5" transform="rotate(30 65 60)" fill="#666666" opacity="0.5" /> <!-- Right Arm -->
    <rect x="35" y="115" width="15" height="60" rx="5" transform="rotate(10 35 115)" fill="#666666" opacity="0.5" /> <!-- Left Leg -->
    <rect x="50" y="115" width="15" height="60" rx="5" transform="rotate(-10 50 115)" fill="#666666" opacity="0.5" /> <!-- Right Leg -->
  </g>
  
  <!-- Logo Text Favale & Pink -->
  <g transform="translate(400, 500)" text-anchor="middle">
    <text font-family="Arial, sans-serif" font-size="14" font-weight="bold" fill="#333333" opacity="0.5">FAVALE &amp; PINK PERSONAL TRAINING</text>
  </g>
</svg>