<?xml version="1.0" encoding="UTF-8"?>
<svg width="800" height="600" viewBox="0 0 800 600" xmlns="http://www.w3.org/2000/svg">
  <defs>
    <linearGradient id="bg-gradient" x1="0%" y1="0%" x2="100%" y2="100%">
      <stop offset="0%" stop-color="#3b82f6" stop-opacity="0.15" />
      <stop offset="100%" stop-color="#ec4899" stop-opacity="0.15" />
    </linearGradient>
  </defs>
  
  <!-- Background -->
  <rect width="800" height="600" fill="url(#bg-gradient)" />
  
  <!-- Personal Trainer and Client Silhouettes -->
  <g transform="translate(200, 200)">
    <!-- Trainer Silhouette -->
    <circle cx="0" cy="-70" r="30" fill="#333" opacity="0.7" /> <!-- Head -->
    <rect x="-15" y="-40" width="30" height="80" rx="5" fill="#333" opacity="0.7" /> <!-- Torso -->
    <rect x="-50" y="-30" width="35" height="12" rx="5" fill="#333" opacity="0.7" transform="rotate(-10 -50 -30)" /> <!-- Left arm upper -->
    <rect x="-65" y="0" width="35" height="10" rx="5" fill="#333" opacity="0.7" transform="rotate(-80 -65 0)" /> <!-- Left arm lower -->
    <rect x="15" y="-30" width="35" height="12" rx="5" fill="#333" opacity="0.7" transform="rotate(30 15 -30)" /> <!-- Right arm upper -->
    <rect x="40" y="-10" width="30" height="10" rx="5" fill="#333" opacity="0.7" transform="rotate(70 40 -10)" /> <!-- Right arm lower -->
    <rect x="-20" y="40" width="15" height="60" rx="5" fill="#333" opacity="0.7" transform="rotate(10 -20 40)" /> <!-- Left leg -->
    <rect x="5" y="40" width="15" height="60" rx="5" fill="#333" opacity="0.7" transform="rotate(-10 5 40)" /> <!-- Right leg -->
    
    <!-- Client Silhouette -->
    <g transform="translate(120, 10)">
      <circle cx="0" cy="-70" r="28" fill="#444" opacity="0.6" /> <!-- Head -->
      <rect x="-15" y="-40" width="30" height="70" rx="5" fill="#444" opacity="0.6" /> <!-- Torso -->
      <rect x="-40" y="-30" width="25" height="10" rx="5" fill="#444" opacity="0.6" transform="rotate(20 -40 -30)" /> <!-- Left arm upper -->
      <rect x="-30" y="0" width="30" height="8" rx="4" fill="#444" opacity="0.6" transform="rotate(100 -30 0)" /> <!-- Left arm lower -->
      <rect x="15" y="-30" width="25" height="10" rx="5" fill="#444" opacity="0.6" transform="rotate(-20 15 -30)" /> <!-- Right arm upper -->
      <rect x="30" y="0" width="30" height="8" rx="4" fill="#444" opacity="0.6" transform="rotate(-100 30 0)" /> <!-- Right arm lower -->
      <rect x="-20" y="30" width="15" height="60" rx="5" fill="#444" opacity="0.6" transform="rotate(-15 -20 30)" /> <!-- Left leg -->
      <rect x="5" y="30" width="15" height="60" rx="5" fill="#444" opacity="0.6" transform="rotate(25 5 30)" /> <!-- Right leg -->
    </g>
  </g>
  
  <!-- Exercise Equipment -->
  <g transform="translate(500, 300)">
    <!-- Exercise Ball -->
    <circle cx="0" cy="0" r="40" fill="#555" opacity="0.5" />
    <ellipse cx="0" cy="0" rx="40" ry="10" fill="#444" opacity="0.4" />
    
    <!-- Resistance Band -->
    <path d="M-60,50 C-20,20 20,20 60,50" stroke="#666" stroke-width="4" fill="none" opacity="0.6" />
    
    <!-- Yoga Mat Rolled -->
    <g transform="translate(-80, 70)">
      <ellipse cx="0" cy="0" rx="15" ry="10" fill="#777" opacity="0.5" />
      <ellipse cx="0" cy="0" rx="15" ry="5" fill="#666" opacity="0.4" />
    </g>
  </g>
  
  <!-- Workout Notes/Plan -->
  <g transform="translate(650, 150)">
    <rect x="-30" y="-40" width="60" height="80" rx="2" fill="#eee" opacity="0.5" />
    <line x1="-20" y1="-25" x2="20" y2="-25" stroke="#777" stroke-width="1" opacity="0.6" />
    <line x1="-20" y1="-15" x2="20" y2="-15" stroke="#777" stroke-width="1" opacity="0.6" />
    <line x1="-20" y1="-5" x2="0" y2="-5" stroke="#777" stroke-width="1" opacity="0.6" />
    <line x1="-20" y1="5" x2="20" y2="5" stroke="#777" stroke-width="1" opacity="0.6" />
    <line x1="-20" y1="15" x2="10" y2="15" stroke="#777" stroke-width="1" opacity="0.6" />
  </g>
  
  <!-- Stopwatch -->
  <g transform="translate(100, 450)">
    <circle cx="0" cy="0" r="25" fill="#555" opacity="0.5" />
    <circle cx="0" cy="0" r="20" fill="#444" opacity="0.4" />
    <line x1="0" y1="0" x2="0" y2="-12" stroke="#777" stroke-width="2" opacity="0.8" />
    <line x1="0" y1="0" x2="8" y2="8" stroke="#777" stroke-width="2" opacity="0.8" />
  </g>
  
  <!-- Water Bottle -->
  <g transform="translate(150, 420)">
    <rect x="-7" y="-20" width="14" height="40" rx="7" fill="#666" opacity="0.5" />
    <rect x="-5" y="-25" width="10" height="5" rx="2" fill="#666" opacity="0.5" />
  </g>
  
  <!-- Logo Text Favale & Pink -->
  <g transform="translate(400, 520)" text-anchor="middle">
    <text font-family="Arial, sans-serif" font-size="18" font-weight="bold" fill="#333" opacity="0.8">FAVALE &amp; PINK</text>
    <text font-family="Arial, sans-serif" font-size="12" y="20" fill="#333" opacity="0.8">PERSONAL TRAINING</text>
  </g>
</svg>